<svg width="39" height="33" viewBox="0 0 39 33" fill="none" xmlns="http://www.w3.org/2000/svg">
<path d="M6.07088 32.126C6.07088 32.586 6.43888 33 6.94488 33H8.60088C9.06088 33 9.42888 32.586 9.42888 32.126V2.594C9.42888 2.134 9.06088 1.72 8.60088 1.72H7.35888L0.918875 7.976C0.688875 8.206 0.504875 8.62 0.826875 8.988L1.70088 9.954C2.02288 10.322 2.39088 10.276 2.75888 10L6.07088 7.424V32.126ZM17.0728 32.126C17.0728 32.586 17.4408 33 17.9468 33H19.6948C20.1548 33 20.5688 32.586 20.5688 32.126V21.316H28.1588C33.7708 21.316 38.4168 16.67 38.4168 10.966C38.4168 5.4 33.7708 0.799998 28.1128 0.799998H17.9468C17.4408 0.799998 17.0728 1.214 17.0728 1.674V32.126ZM20.5688 17.912V4.296H27.8828C31.6548 4.296 34.8748 7.148 34.8748 10.874C34.8748 14.83 31.6548 17.912 27.8828 17.912H20.5688Z" fill="#3465E5"/>
</svg>
