<svg width="48" height="34" viewBox="0 0 48 34" fill="none" xmlns="http://www.w3.org/2000/svg">
<path d="M0.639617 29.366C1.65162 30.516 4.22762 33.46 9.88562 33.46C16.2336 33.46 20.0976 29.55 20.0976 24.536C20.0976 20.58 16.7396 18.004 14.5776 17.084V16.946C16.6476 15.98 19.3156 13.22 19.3156 9.678C19.3156 4.526 15.4056 1.26 9.83962 1.26C4.82562 1.26 1.51362 5.308 1.51362 5.308C1.19162 5.63 1.14562 6.182 1.51362 6.504L2.61762 7.378C3.07762 7.792 3.53762 7.608 3.81362 7.286C4.82562 6.136 6.71162 4.296 9.83962 4.296C13.1056 4.296 15.8656 6.504 15.8656 10.138C15.8656 13.174 13.4736 15.704 8.55162 15.704H6.02162C5.28562 15.704 5.05562 15.98 5.05562 16.716V17.82C5.05562 18.556 5.42362 18.832 5.92962 18.832H8.50562C14.2096 18.832 16.6476 21.73 16.6476 24.858C16.6476 28.492 13.5196 30.608 10.0236 30.608C6.06762 30.608 3.58362 27.94 3.16962 27.434C2.80162 26.928 2.43362 26.836 1.92762 27.204L0.685617 28.262C0.317617 28.538 0.363617 29.044 0.639617 29.366ZM25.812 32.126C25.812 32.586 26.18 33 26.686 33H28.434C28.894 33 29.308 32.586 29.308 32.126V21.316H36.898C42.51 21.316 47.156 16.67 47.156 10.966C47.156 5.4 42.51 0.799998 36.852 0.799998H26.686C26.18 0.799998 25.812 1.214 25.812 1.674V32.126ZM29.308 17.912V4.296H36.622C40.394 4.296 43.614 7.148 43.614 10.874C43.614 14.83 40.394 17.912 36.622 17.912H29.308Z" fill="#3465E5"/>
</svg>
