<svg width="52" height="33" viewBox="0 0 52 33" fill="none" xmlns="http://www.w3.org/2000/svg">
<path d="M1.85227 25.916H17.6303V32.126C17.6303 32.586 18.0443 33 18.5043 33H20.0683C20.5283 33 20.9423 32.586 20.9423 32.126V25.824H24.6683C25.1743 25.824 25.5423 25.41 25.5423 24.95V23.938C25.5423 23.478 25.1743 23.11 24.6683 23.11H20.9423L20.8963 2.088C20.8963 1.582 20.4823 1.214 20.0223 1.214H19.1023C18.6883 1.214 18.5503 1.352 18.4123 1.49L0.978266 23.34V25.042C0.978266 25.502 1.34627 25.916 1.85227 25.916ZM4.84227 23.064L17.8143 7.056V23.064H4.84227ZM30.0474 32.126C30.0474 32.586 30.4154 33 30.9214 33H32.6694C33.1294 33 33.5434 32.586 33.5434 32.126V21.316H41.1334C46.7454 21.316 51.3914 16.67 51.3914 10.966C51.3914 5.4 46.7454 0.799998 41.0874 0.799998H30.9214C30.4154 0.799998 30.0474 1.214 30.0474 1.674V32.126ZM33.5434 17.912V4.296H40.8574C44.6294 4.296 47.8494 7.148 47.8494 10.874C47.8494 14.83 44.6294 17.912 40.8574 17.912H33.5434Z" fill="#3465E5"/>
</svg>
