<svg width="47" height="33" viewBox="0 0 47 33" fill="none" xmlns="http://www.w3.org/2000/svg">
<path d="M0.224071 32.126C0.224071 32.586 0.59207 33 1.09807 33H18.5781C19.0381 33 19.4521 32.586 19.4521 32.126V30.884C19.4521 30.424 19.0381 30.01 18.5781 30.01H5.05407C7.99807 26.882 10.9421 23.708 13.8861 20.58C17.0601 17.176 19.6361 14.186 19.6361 10.138C19.6361 5.446 16.2781 1.26 9.70007 1.26C4.22607 1.26 0.96007 5.768 0.96007 5.768C0.638071 6.136 0.730071 6.642 1.00607 6.964L1.92607 7.838C2.29407 8.206 2.80007 8.206 3.16807 7.838C4.59407 6.32 6.84807 4.388 9.70007 4.388C14.4381 4.388 16.1401 7.608 16.1401 10.23C16.1401 12.392 14.6221 15.152 11.4941 18.556C7.72207 22.604 3.99607 26.698 0.224071 30.746V32.126ZM24.9976 32.126C24.9976 32.586 25.3656 33 25.8716 33H27.6196C28.0796 33 28.4936 32.586 28.4936 32.126V21.316H36.0836C41.6956 21.316 46.3416 16.67 46.3416 10.966C46.3416 5.4 41.6956 0.799998 36.0376 0.799998H25.8716C25.3656 0.799998 24.9976 1.214 24.9976 1.674V32.126ZM28.4936 17.912V4.296H35.8076C39.5796 4.296 42.7996 7.148 42.7996 10.874C42.7996 14.83 39.5796 17.912 35.8076 17.912H28.4936Z" fill="#3465E5"/>
</svg>
