<?xml version="1.0" encoding="utf-8"?>
<!-- Generator: Adobe Illustrator 26.5.0, SVG Export Plug-In . SVG Version: 6.00 Build 0)  -->
<svg version="1.1" id="Layer_1" xmlns="http://www.w3.org/2000/svg" xmlns:xlink="http://www.w3.org/1999/xlink" x="0px" y="0px"
	 viewBox="0 0 48 34" style="enable-background:new 0 0 48 34;" xml:space="preserve">
<style type="text/css">
	.st0{fill:#10B70C;}
</style>
<path class="st0" d="M0.6,29.4c1,1.2,3.6,4.1,9.2,4.1c6.3,0,10.2-3.9,10.2-8.9c0-4-3.4-6.5-5.5-7.5v-0.1c2.1-1,4.7-3.7,4.7-7.3
	c0-5.2-3.9-8.4-9.5-8.4c-5,0-8.3,4-8.3,4c-0.3,0.3-0.4,0.9,0,1.2l1.1,0.9c0.5,0.4,0.9,0.2,1.2-0.1c1-1.1,2.9-3,6-3
	c3.3,0,6,2.2,6,5.8c0,3-2.4,5.6-7.3,5.6H6c-0.7,0-1,0.3-1,1v1.1c0,0.7,0.4,1,0.9,1h2.6c5.7,0,8.1,2.9,8.1,6c0,3.6-3.1,5.8-6.6,5.8
	c-4,0-6.4-2.7-6.9-3.2c-0.4-0.5-0.7-0.6-1.2-0.2l-1.2,1.1C0.3,28.5,0.4,29,0.6,29.4z M25.8,32.1c0,0.5,0.4,0.9,0.9,0.9h1.7
	c0.5,0,0.9-0.4,0.9-0.9V21.3h7.6c5.6,0,10.3-4.6,10.3-10.4c0-5.6-4.6-10.2-10.3-10.2H26.7c-0.5,0-0.9,0.4-0.9,0.9V32.1z M29.3,17.9
	V4.3h7.3c3.8,0,7,2.9,7,6.6c0,4-3.2,7-7,7H29.3z"/>
</svg>
