<?xml version="1.0" encoding="utf-8"?>
<!-- Generator: Adobe Illustrator 26.5.0, SVG Export Plug-In . SVG Version: 6.00 Build 0)  -->
<svg version="1.1" id="Layer_1" xmlns="http://www.w3.org/2000/svg" xmlns:xlink="http://www.w3.org/1999/xlink" x="0px" y="0px"
	 viewBox="0 0 52 33" style="enable-background:new 0 0 52 33;" xml:space="preserve">
<style type="text/css">
	.st0{fill:#10B70C;}
</style>
<path class="st0" d="M1.9,25.9h15.8v6.2c0,0.5,0.4,0.9,0.9,0.9h1.6c0.5,0,0.9-0.4,0.9-0.9v-6.3h3.7c0.5,0,0.9-0.4,0.9-0.9v-1
	c0-0.5-0.4-0.8-0.9-0.8h-3.7l0-21c0-0.5-0.4-0.9-0.9-0.9h-0.9c-0.4,0-0.6,0.1-0.7,0.3L1,23.3V25C1,25.5,1.3,25.9,1.9,25.9z
	 M4.8,23.1l13-16v16H4.8z M30,32.1c0,0.5,0.4,0.9,0.9,0.9h1.7c0.5,0,0.9-0.4,0.9-0.9V21.3h7.6c5.6,0,10.3-4.6,10.3-10.4
	c0-5.6-4.6-10.2-10.3-10.2H30.9c-0.5,0-0.9,0.4-0.9,0.9V32.1z M33.5,17.9V4.3h7.3c3.8,0,7,2.9,7,6.6c0,4-3.2,7-7,7H33.5z"/>
</svg>
